<svg width="374" height="233" viewBox="0 0 374 233" fill="none" xmlns="http://www.w3.org/2000/svg">
  <path d="M335.165 163.438H341.035V163.642C358.647 163.642 373.14 179.53 373.14 199.288V232.65H0.725098V199.085C0.725098 179.53 15.0346 163.438 32.8298 163.438H38.7004C40.7184 152.846 49.1574 144.698 59.4309 144.698H73.3735C73.3735 144.698 64.0173 130.439 66.5857 103.755C69.154 77.0714 101.442 58.3315 148.04 33.2771C180.145 15.963 186.933 0.889648 186.933 0.889648C186.933 0.889648 191.335 14.9446 225.825 33.2771C272.606 57.9241 304.711 77.0714 307.279 103.755C309.848 130.439 300.492 144.698 300.492 144.698H314.434C324.708 144.698 333.147 152.642 335.165 163.438Z" fill="url(#paint0_radial_20_74)" stroke="#FFFFFF" stroke-width="6"/>
  <defs>
    <radialGradient id="paint0_radial_20_74" cx="0" cy="0" r="1" gradientUnits="userSpaceOnUse" gradientTransform="translate(186.199 263.086) scale(363.793 289.981)">
      <stop stop-color="#01DA9A"/>
      <stop offset="1" stop-color="#03B7B5"/>
    </radialGradient>
  </defs>
</svg>
